<svg xmlns="http://www.w3.org/2000/svg" viewBox="0 0 777.59 71.61"><defs><style>.cls-1{fill:#004693;}.cls-2,.cls-5{fill:#fff;}.cls-3,.cls-4{fill:#d78d00;}.cls-4{stroke:#d78d00;stroke-width:0.75px;}.cls-5{font-size:15px;font-family:Raleway-Bold, Raleway;font-weight:700;letter-spacing:0.53em;}.cls-6{letter-spacing:0.52em;}.cls-7{fill:none;stroke:#fff;stroke-miterlimit:10;}</style></defs><g id="Capa_2" data-name="Capa 2"><g id="Capa_1-2" data-name="Capa 1"><path class="cls-1" d="M71.61,35.8A35.81,35.81,0,1,1,35.81,0,35.8,35.8,0,0,1,71.61,35.8Z"/><path class="cls-2" d="M50.62,20.13c2.44,3.47,6.66,6.34,6.79,15.52A21.15,21.15,0,1,1,21.72,20.31h0c1.29-1.23-3.16-5.91-4.45-4.69h0a27.61,27.61,0,1,0,46.6,20c0-7.67-3-15.31-8.86-20.26h0c-1.31-1.22-5.7,3.53-4.39,4.74Z"/><path class="cls-2" d="M49.41,27.49a8,8,0,0,1-11.27,0,12.88,12.88,0,0,0-18.21,0c-1,1,2.52,4.42,3.48,3.46A8.09,8.09,0,0,1,26.57,29V48.27c0,1.36,4.92,1.36,4.92,0V29.05A8.09,8.09,0,0,1,34.67,31a12.91,12.91,0,0,0,6.64,3.54V48.27c0,1.36,4.92,1.36,4.92,0V34.49A12.84,12.84,0,0,0,52.87,31C53.83,30,50.37,26.52,49.41,27.49Z"/><path class="cls-1" d="M106.17,9.89,108.82,0H121l36.33.06q5.22-.06,8,2.41c1.87,1.65,2.37,4.12,1.48,7.42l-1.13,4.24A10.52,10.52,0,0,1,160.76,21c-2.39,1.32-5.62,2-9.69,2H112.29l-1.13,4.23-2.72,10.15H98.81l2.49-9.31L105,14.13h50.59l1.14-4.24Z"/><path class="cls-1" d="M175.92,37.37h-9.63l7.36-27.48L176.3,0h9.63l-2.65,9.89L182.18,14,180,22.09Z"/><path class="cls-3" d="M190.28,9.89l.15-.58a11.45,11.45,0,0,1,5.3-6.58A17,17,0,0,1,205.07,0l36.32.06L253.54,0l-2.65,9.89H190.28Zm47.49,17.33h8.47l-2.71,10.15H195.05c-3.38,0-6-.91-7.87-2.73a6.3,6.3,0,0,1-1.77-6.58l3.73-13.93h60.61L247.38,23h-51l-1.13,4.23h42.5Z"/><path class="cls-3" d="M304.09,27.22l3.45-12.84L311.39,0H321L313.5,28.06,311,37.37h-9.63L267.52,9.89h-9.76L260.41,0h9.89ZM256.56,14.38l-6.16,23H260l3.68-13.74,2.48-9.25Z"/><path class="cls-1" d="M372.73,27.22h8.47l-2.71,10.15H330c-3.38,0-6-.91-7.87-2.73a6.3,6.3,0,0,1-1.77-6.58l5-18.75a11.45,11.45,0,0,1,5.3-6.58A17,17,0,0,1,340,0l36.33.06L388.5,0l-2.65,9.89H343a12.63,12.63,0,0,0-6.11,1.47,6.62,6.62,0,0,0-3.38,3.54l-1.93,7.19A3.26,3.26,0,0,0,333,25.68a8.28,8.28,0,0,0,5.37,1.54h34.41Z"/><path class="cls-1" d="M392.72,9.89l.15-.58a11.45,11.45,0,0,1,5.3-6.58A17,17,0,0,1,407.51,0l36.32.06L456,0l-2.65,9.89H392.72Zm47.49,17.33h8.47L446,37.37H397.49c-3.38,0-6-.91-7.87-2.73a6.3,6.3,0,0,1-1.77-6.58l3.74-13.93h60.6L449.82,23h-51l-1.13,4.23h42.5Z"/><path class="cls-3" d="M498.72,9.89,501.37,0h12.14l36.32.06q5.22-.06,8,2.41t1.49,7.42l-1.14,4.24A10.49,10.49,0,0,1,553.31,21c-2.39,1.32-5.62,2-9.68,2H504.84l-1.13,4.23L501,37.37h-9.63l2.49-9.31,3.74-13.93h50.59l1.14-4.24Z"/><path class="cls-3" d="M613.69,27.22h8.48l-2.72,10.15H571q-5.07,0-7.87-2.73a6.32,6.32,0,0,1-1.77-6.58l5-18.75a11.43,11.43,0,0,1,5.29-6.58A17,17,0,0,1,581,0l36.32.06L629.46,0l-2.65,9.89H584a12.58,12.58,0,0,0-6.11,1.47,6.6,6.6,0,0,0-3.39,3.54l-1.92,7.19a3.27,3.27,0,0,0,1.34,3.59,8.32,8.32,0,0,0,5.37,1.54h34.41Z"/><path class="cls-3" d="M633.84,9.31a11.43,11.43,0,0,1,5.29-6.58A17,17,0,0,1,648.47,0l36.32.06L696.94,0l-2.65,9.89h-51l-1.2,4.49h38.78c4.07,0,6.94.67,8.62,2s2.08,3.62,1.21,6.87l-1.14,4.24a11.84,11.84,0,0,1-5.45,7.42,18,18,0,0,1-9.4,2.47H626.32L629,27.48h50.59l1.14-4.24H642.18q-5.49-.12-8.12-2.31c-1.75-1.45-2.28-3.64-1.58-6.55l.69-2.57Z"/><polygon class="cls-1" points="474.29 17.66 467.57 17.66 469.37 10.94 476.1 10.94 474.29 17.66"/><polygon class="cls-1" points="483.08 17.66 476.36 17.66 478.16 10.94 484.89 10.94 483.08 17.66"/><polygon class="cls-1" points="471.94 26.43 465.22 26.43 467.02 19.71 473.74 19.71 471.94 26.43"/><polygon class="cls-1" points="480.74 26.43 474.01 26.43 475.81 19.71 482.54 19.71 480.74 26.43"/><polygon class="cls-4" points="721.93 35.79 720.21 35.79 720.67 34.07 722.4 34.07 721.93 35.79"/><polygon class="cls-4" points="749.03 35.79 747.31 35.79 747.77 34.07 749.49 34.07 749.03 35.79"/><polygon class="cls-1" points="765.43 71.61 87.61 71.61 95.53 45.93 773.36 45.93 765.43 71.61"/><path class="cls-4" d="M716.29,31.75c.34-.72-.42-1.12-1.47-1.12h-9.58c-2.62,0-4-1.3-3.47-2.94h2.86c-.15.62.45,1.12,1.45,1.12h9.58c1.15,0,2.79.21,3.45,1.31s-.26,2.88-1,3.65a6.56,6.56,0,0,1-3.34,1.62c-2.41.62-4.85.4-7.31.4H698l.84-1.81h14.42a3.07,3.07,0,0,0,2.59-1.28Z"/><path class="cls-4" d="M723,23.49l-.85,1.82H707.72a3.09,3.09,0,0,0-2.6,1.28h-2.83c.88-1.71,3.57-3.1,6.27-3.1Z"/><path class="cls-4" d="M728,35.79H725l7.92-7H736l-2.06,1.82h6.18l-1.43-7.14h3.08l2.47,12.3h-3.07l-.68-3.35h-8.61Z"/><path class="cls-4" d="M770.32,31.75c.34-.72-.42-1.12-1.48-1.12h-9.58c-2.62,0-4-1.3-3.46-2.94h2.86c-.15.62.45,1.12,1.45,1.12h9.58c2.62,0,4.27,1.21,3.46,2.94a6.31,6.31,0,0,1-1,2.06,5.72,5.72,0,0,1-2.23,1.25,10.92,10.92,0,0,1-3.46.73H752l.85-1.81h14.41a3.1,3.1,0,0,0,2.6-1.28Z"/><path class="cls-4" d="M777,23.49l-.84,1.82H761.74a3.07,3.07,0,0,0-2.59,1.28h-2.84c.88-1.71,3.58-3.1,6.28-3.1Z"/><text class="cls-5" transform="matrix(1.11, 0, -0.17, 0.98, 171.79, 64.58)">PIENSE EN G<tspan class="cls-6" x="178.29" y="0">R</tspan><tspan x="196.05" y="0">ANDE, PIENCE PCS.</tspan></text><line class="cls-7" x1="699.87" y1="27.09" x2="710.37" y2="27.09"/><line class="cls-7" x1="87.6" y1="59.77" x2="151.49" y2="59.77"/><line class="cls-7" x1="698" y1="59.77" x2="771.27" y2="59.77"/><line class="cls-7" x1="752.83" y1="27.09" x2="763.33" y2="27.09"/></g></g></svg>