<svg xmlns="http://www.w3.org/2000/svg" viewBox="0 0 660 400"><defs><style>.cls-1{isolation:isolate;}.cls-2{fill:#a8cff0;}.cls-3{fill:#d1ebff;}.cls-4{fill:#f0f8ff;}.cls-13,.cls-18,.cls-5,.cls-6,.cls-9{fill:#fff;}.cls-5{opacity:0.5;}.cls-7{fill:#72b5e8;}.cls-8,.cls-9{mix-blend-mode:color-dodge;}.cls-10,.cls-27{fill:#f93;}.cls-11{fill:#3f92d1;}.cls-12{fill:#4f9fdb;}.cls-13{mix-blend-mode:screen;}.cls-14{fill:#03336e;}.cls-15{fill:#001a46;}.cls-16{fill:#d86a07;}.cls-17{fill:#2672ab;}.cls-18,.cls-27{opacity:0.7;}.cls-19{fill:#084c94;}.cls-20{fill:#0fbab8;}.cls-21{fill:#0ba19f;}.cls-22{fill:#fc0;}.cls-23{fill:#ffde17;}.cls-24{fill:#3ecfcd;}.cls-25{fill:#ffd70f;}.cls-26{fill:#ffae64;}.cls-28{fill:#92b4d1;opacity:0.2;}</style></defs><g class="cls-1"><g id="Capa_2" data-name="Capa 2"><g id="Layer_1" data-name="Layer 1"><polygon class="cls-2" points="660 329.54 660 320.89 660 320.89 660 329.54"/><polygon class="cls-3" points="0 307.61 85.24 258.77 0 210 0 307.61"/><polygon class="cls-3" points="453.56 0 495.22 23.84 536.83 0 453.56 0"/><polygon class="cls-3" points="660 0 660 320.89 660 320.89 660 0 660 0 660 0"/><polygon class="cls-4" points="0 307.61 0 400 332.1 400 85.24 258.77 0 307.61"/><polygon class="cls-4" points="536.83 0 495.22 23.84 660 118.17 660 0 536.83 0"/><polygon class="cls-5" points="660 400 660 329.54 660 400 660 400"/><polygon class="cls-4" points="0 0 0 210 85.24 258.77 495.22 23.84 453.56 0 0 0"/><polygon class="cls-3" points="522.45 400 660 400 660 320.89 522.45 400"/><polygon class="cls-3" points="660 118.17 495.22 23.84 85.24 258.77 332.1 400 522.45 400 660 320.89 660 118.17"/><polygon class="cls-6" points="660 118.17 495.22 23.84 85.24 258.77 332.1 400 522.45 400 660 320.89 660 118.17"/><path class="cls-7" d="M588.8,239.19c-7.66-4.43-13.88-15.15-13.88-23.95,0-3.26.86-5.79,2.33-7.46-4.21.3-7,3.82-7,9.77,0,8.8,6.21,19.52,13.88,23.95,4.82,2.78,9,2.4,11.54-.44A12.1,12.1,0,0,1,588.8,239.19Z"/><path class="cls-2" d="M602.3,236.29a26,26,0,0,0-.24-3.37l5.62-.71a50.84,50.84,0,0,0-2.55-8.5l-6.39-1.93a45.63,45.63,0,0,0-4-6.87l1.53-6.45a51,51,0,0,0-6.13-6.46l-3.44,4.46a26.17,26.17,0,0,0-2.81-1.9,21.16,21.16,0,0,0-2.82-1.35l-3.44-8.43a17,17,0,0,0-6.13-.62l1.54,8.22a8.82,8.82,0,0,0-4,2.27l-6.4-5.45a16.75,16.75,0,0,0-2.54,5.56l5.61,7.19a21.66,21.66,0,0,0-.24,3.1,27.53,27.53,0,0,0,.24,3.36l-5.61.71a50.24,50.24,0,0,0,2.54,8.5l6.4,1.94a43.89,43.89,0,0,0,4,6.86l-1.54,6.46a51.54,51.54,0,0,0,6.13,6.45l3.44-4.45a29.63,29.63,0,0,0,2.82,1.9,22.36,22.36,0,0,0,2.81,1.35l3.44,8.43a17,17,0,0,0,6.13.61L594.76,249a8.83,8.83,0,0,0,4-2.27l6.39,5.45a16.57,16.57,0,0,0,2.55-5.56l-5.62-7.19A20.07,20.07,0,0,0,602.3,236.29Zm-18.22,5.21c-7.67-4.43-13.88-15.15-13.88-23.95s6.21-12.34,13.88-7.92,13.89,15.15,13.89,24S591.75,245.93,584.08,241.5Z"/><polygon class="cls-7" points="586.47 200.12 583.03 191.69 577.65 194.78 581.09 203.21 586.47 200.12"/><path class="cls-3" d="M581.09,203.21a21.16,21.16,0,0,1,2.82,1.35,26.17,26.17,0,0,1,2.81,1.9l3.44-4.46h0l-.87-.53a21.16,21.16,0,0,0-2.82-1.35Z"/><path class="cls-3" d="M583,191.69a17,17,0,0,0-6.13-.62l-5.38,3.09a17,17,0,0,1,6.13.62Z"/><path class="cls-3" d="M601.67,205.37a51,51,0,0,0-6.13-6.46L590.16,202a51,51,0,0,1,6.13,6.46Z"/><polygon class="cls-7" points="596.29 208.46 594.76 214.91 600.13 211.82 601.67 205.37 596.29 208.46"/><path class="cls-7" d="M594.76,214.91a45.63,45.63,0,0,1,4,6.87l5.38-3.09a45.63,45.63,0,0,0-4-6.87Z"/><polygon class="cls-3" points="598.74 221.78 605.13 223.71 610.51 220.62 604.12 218.69 598.74 221.78"/><path class="cls-7" d="M605.13,223.71a50.84,50.84,0,0,1,2.55,8.5l5.38-3.09a50.84,50.84,0,0,0-2.55-8.5Z"/><path class="cls-7" d="M573.06,202.38l-.45-2.39-4.55-3.88-5.38,3.09,6.4,5.45A8.82,8.82,0,0,1,573.06,202.38Z"/><path class="cls-7" d="M607.68,246.57a16.57,16.57,0,0,1-2.55,5.56l5.38-3.09a16.57,16.57,0,0,0,2.55-5.56Z"/><path class="cls-7" d="M607.44,236.29a21.41,21.41,0,0,0,.24-3.09c0-.33,0-.66,0-1l-5.58.7a26,26,0,0,1,.24,3.37,20.07,20.07,0,0,1-.24,3.09Z"/><polygon class="cls-3" points="602.06 239.38 607.68 246.57 613.06 243.48 607.44 236.29 602.06 239.38"/><path class="cls-7" d="M598.74,246.68a8.83,8.83,0,0,1-4,2.27l1.53,8.22,5.38-3.09-1.09-5.83Z"/><path class="cls-3" d="M565.55,216l-5.41,3.17,5.61-.71C565.64,217.58,565.58,216.76,565.55,216Z"/><path class="cls-7" d="M581.09,244.88l-3.44,4.45,5.42-3.08C582.4,245.82,581.74,245.37,581.09,244.88Z"/><g class="cls-8"><path class="cls-6" d="M572.4,202.76v-.09c-.26.1-.51.22-.75.34A6.75,6.75,0,0,1,572.4,202.76Z"/><path class="cls-6" d="M565.07,218.51l-4.66.59a2.61,2.61,0,0,0,.06.27l4.62-.59C565.08,218.69,565.08,218.6,565.07,218.51Z"/><path class="cls-6" d="M596,208.81l-1.54,6.45a44.85,44.85,0,0,1,4,6.87l6.39,1.93a51.22,51.22,0,0,1,2.48,8.23l.64-.1a50.29,50.29,0,0,0-2.55-8.5L599,221.75a45.53,45.53,0,0,0-4-6.86l1.53-6.46a51.54,51.54,0,0,0-6.13-6.45l-.21.71A51.76,51.76,0,0,1,596,208.81Z"/><path class="cls-6" d="M584.13,241.4c-7.67-4.43-13.89-15.16-13.89-24,0-3.88,1.22-6.73,3.24-8.33-2.33,1.5-3.76,4.5-3.76,8.71,0,8.8,6.21,19.52,13.88,24,3.87,2.24,7.37,2.44,9.89,1l-.57.13C590.52,243.73,587.47,243.32,584.13,241.4Z"/><path class="cls-6" d="M595.79,248.67a8.53,8.53,0,0,0,2.53-1.42l-.24-.2A8.67,8.67,0,0,1,595.79,248.67Z"/><path class="cls-6" d="M568.87,204.8c-.23,0,0-.18.24-.37L563,199.18c-.17.24-.33.5,0,.53Z"/><path class="cls-9" d="M594.6,249.32l1.47,7.87c-.17,0,.17,0,.49,0L595,249C594.74,249.13,594.42,249.24,594.6,249.32Z"/><path class="cls-6" d="M602.57,236.26a25.2,25.2,0,0,0-.21-3.09l-.56,0a26,26,0,0,1,.24,3.37,20.07,20.07,0,0,1-.24,3.09l5.62,7.19a17,17,0,0,1-2,4.8l0,.45a16.76,16.76,0,0,0,2.55-5.56l-5.62-7.2A20.07,20.07,0,0,0,602.57,236.26Z"/><path class="cls-6" d="M577.41,195l3.45,8.43a22.36,22.36,0,0,1,2.81,1.35,29.63,29.63,0,0,1,2.82,1.9l.1-.53a26,26,0,0,0-2.41-1.62,22.47,22.47,0,0,0-2.82-1.35l-3.44-8.43a17.25,17.25,0,0,0-6.13-.62l.07.36A19.94,19.94,0,0,1,577.41,195Z"/><path class="cls-6" d="M580.44,245.25,577.56,249l.36.34,2.92-3.77Z"/></g><path class="cls-7" d="M586.81,173.15c-11.54-6.66-20.89-22.79-20.89-36,0-4.91,1.3-8.71,3.51-11.23-6.33.46-10.61,5.76-10.61,14.71,0,13.23,9.35,29.36,20.89,36,7.24,4.19,13.61,3.61,17.35-.66A18.17,18.17,0,0,1,586.81,173.15Z"/><path class="cls-2" d="M607.11,168.78a39.77,39.77,0,0,0-.36-5.06l8.45-1.07a76,76,0,0,0-3.83-12.78L601.75,147a67.72,67.72,0,0,0-6-10.33l2.31-9.71a76.79,76.79,0,0,0-9.22-9.71l-5.18,6.7a41.9,41.9,0,0,0-4.23-2.86,32.42,32.42,0,0,0-4.23-2L570,106.34a25.66,25.66,0,0,0-9.22-.93l2.31,12.37a13.29,13.29,0,0,0-6,3.42l-9.62-8.2a25.06,25.06,0,0,0-3.83,8.36l8.45,10.82a30.9,30.9,0,0,0-.36,4.65,39.9,39.9,0,0,0,.36,5.06L543.68,143a76,76,0,0,0,3.83,12.78l9.62,2.91a67.72,67.72,0,0,0,6,10.33l-2.31,9.71A77.5,77.5,0,0,0,570,188.4l5.18-6.7a41.9,41.9,0,0,0,4.23,2.86,32.42,32.42,0,0,0,4.23,2l5.18,12.68a25.68,25.68,0,0,0,9.22.93l-2.31-12.37a13.29,13.29,0,0,0,6-3.42l9.62,8.2a25.06,25.06,0,0,0,3.83-8.36l-8.45-10.82A30.9,30.9,0,0,0,607.11,168.78Zm-27.4,7.84c-11.54-6.66-20.89-22.79-20.89-36s9.35-18.57,20.89-11.91,20.89,22.79,20.89,36S591.24,183.29,579.71,176.62Z"/><polygon class="cls-7" points="583.3 114.37 578.12 101.69 570.03 106.34 575.21 119.02 583.3 114.37"/><path class="cls-3" d="M575.21,119a32.42,32.42,0,0,1,4.23,2,41.9,41.9,0,0,1,4.23,2.86l5.18-6.7h0s-.87-.55-1.32-.8a32.53,32.53,0,0,0-4.23-2Z"/><path class="cls-3" d="M578.12,101.69a25.85,25.85,0,0,0-9.21-.93l-8.1,4.65a25.66,25.66,0,0,1,9.22.93Z"/><path class="cls-3" d="M606.16,122.27a76.75,76.75,0,0,0-9.22-9.71l-8.09,4.65a76.79,76.79,0,0,1,9.22,9.71Z"/><polygon class="cls-7" points="598.07 126.92 595.76 136.63 603.85 131.98 606.16 122.27 598.07 126.92"/><path class="cls-7" d="M595.76,136.63a67.72,67.72,0,0,1,6,10.33l8.09-4.65a67.72,67.72,0,0,0-6-10.33Z"/><polygon class="cls-3" points="601.75 146.96 611.37 149.87 619.46 145.22 609.84 142.31 601.75 146.96"/><path class="cls-7" d="M611.37,149.87a76,76,0,0,1,3.83,12.78l8.09-4.65a76,76,0,0,0-3.83-12.78Z"/><path class="cls-7" d="M563.12,117.78l-.67-3.6-6.85-5.83L547.51,113l9.62,8.2A13.29,13.29,0,0,1,563.12,117.78Z"/><path class="cls-7" d="M615.2,184.25a25.06,25.06,0,0,1-3.83,8.36l8.09-4.64a25.12,25.12,0,0,0,3.83-8.37Z"/><path class="cls-7" d="M614.85,168.78a32.31,32.31,0,0,0,.35-4.65c0-.48,0-1-.05-1.47l-8.4,1.06a39.77,39.77,0,0,1,.36,5.06,30.9,30.9,0,0,1-.36,4.65Z"/><polygon class="cls-3" points="606.75 173.43 615.2 184.25 623.29 179.6 614.85 168.78 606.75 173.43"/><path class="cls-7" d="M601.75,184.41a13.29,13.29,0,0,1-6,3.42l2.31,12.37,8.09-4.65-1.64-8.77Z"/><path class="cls-3" d="M551.82,138.18,543.68,143l8.45-1.07C552,140.64,551.88,139.41,551.82,138.18Z"/><path class="cls-7" d="M575.21,181.7,570,188.4l8.15-4.64C577.18,183.12,576.18,182.44,575.21,181.7Z"/><g class="cls-8"><path class="cls-6" d="M562.14,118.34l0-.12c-.38.14-.75.32-1.12.5C561.37,118.59,561.74,118.44,562.14,118.34Z"/><path class="cls-6" d="M551.1,142l-7,.88c0,.14.07.28.09.41l7-.88C551.13,142.31,551.12,142.17,551.1,142Z"/><path class="cls-6" d="M597.61,127.45l-2.3,9.71a68.1,68.1,0,0,1,6,10.32l9.62,2.91a77.11,77.11,0,0,1,3.73,12.38l1-.16a75.08,75.08,0,0,0-3.82-12.78l-9.62-2.91a67.72,67.72,0,0,0-6-10.33l2.3-9.71a77.4,77.4,0,0,0-9.21-9.71l-.32,1.07A76.88,76.88,0,0,1,597.61,127.45Z"/><path class="cls-6" d="M579.78,176.47c-11.54-6.67-20.89-22.8-20.89-36,0-5.85,1.83-10.14,4.87-12.54-3.51,2.26-5.66,6.76-5.66,13.1,0,13.24,9.35,29.37,20.88,36,5.83,3.36,11.09,3.66,14.88,1.44-.28.08-.57.14-.86.2C589.4,180,584.8,179.36,579.78,176.47Z"/><path class="cls-6" d="M597.32,187.41a13.17,13.17,0,0,0,3.8-2.13l-.35-.31A13.27,13.27,0,0,1,597.32,187.41Z"/><path class="cls-6" d="M556.83,121.41c-.35,0,0-.27.35-.55l-9.26-7.9c-.26.36-.5.76-.07.81Z"/><path class="cls-9" d="M595.53,188.39l2.21,11.84c-.26,0,.25,0,.73-.07l-2.28-12.25C595.73,188.09,595.26,188.26,595.53,188.39Z"/><path class="cls-6" d="M607.52,168.74a38.94,38.94,0,0,0-.32-4.65l-.84.07a39.9,39.9,0,0,1,.36,5.06,30.9,30.9,0,0,1-.36,4.65l8.45,10.82a26,26,0,0,1-3.09,7.22l.06.67a24.91,24.91,0,0,0,3.82-8.37l-8.44-10.82A32.27,32.27,0,0,0,607.52,168.74Z"/><path class="cls-6" d="M569.68,106.68l5.18,12.68a32.42,32.42,0,0,1,4.23,2,41.79,41.79,0,0,1,4.23,2.85l.16-.8a37.53,37.53,0,0,0-3.63-2.42,32,32,0,0,0-4.24-2l-5.17-12.68a25.92,25.92,0,0,0-9.22-.93l.1.53A30.26,30.26,0,0,1,569.68,106.68Z"/><path class="cls-6" d="M574.22,182.26l-4.33,5.6c.19.17.36.34.55.5l4.38-5.67Z"/></g><path class="cls-10" d="M589.9,100.76c.06-1.34,1-1.92,2.05-1.3a4.17,4.17,0,0,1,1.82,3.54c-.06,1.33-1,1.92-2,1.3A4.18,4.18,0,0,1,589.9,100.76Z"/><path class="cls-10" d="M583.91,260.8c0-.89.66-1.28,1.37-.87a2.79,2.79,0,0,1,1.21,2.35c0,.89-.65,1.28-1.37.87A2.79,2.79,0,0,1,583.91,260.8Z"/><path class="cls-10" d="M623,196.09a.51.51,0,0,1-.39-.19.5.5,0,0,1,0-.56l2.4-4.11a.5.5,0,1,1,.86.5l-1.75,3,3.54-1.09a.5.5,0,0,1,.62.34.49.49,0,0,1-.33.62l-4.76,1.47Z"/><path class="cls-10" d="M624.54,195.41l-.67-.74c5.38-4.89,8.23-12.85,8.23-23,0-25.34-18-56.33-40.05-69.08l.5-.86C614.91,114.6,633.1,146,633.1,171.63,633.1,182.11,630.14,190.33,624.54,195.41Z"/><path class="cls-2" d="M640.41,178.34h0a.5.5,0,0,1-.49-.51c0-.32,0-.66,0-1a.5.5,0,0,1,.5-.5.5.5,0,0,1,.5.5c0,.34,0,.68,0,1A.5.5,0,0,1,640.41,178.34Z"/><path class="cls-2" d="M612.89,213a.5.5,0,0,1,0-1c.66,0,1.31,0,2-.08a.5.5,0,1,1,.08,1c-.67.05-1.35.08-2,.08Zm-3-.11h0c-.66-.05-1.33-.13-2-.22a.5.5,0,1,1,.14-1c.66.09,1.3.16,2,.22a.5.5,0,0,1,.45.54A.5.5,0,0,1,609.91,212.88Zm7.91-.35a.49.49,0,0,1-.49-.41.5.5,0,0,1,.4-.58c.64-.12,1.28-.26,1.9-.42a.5.5,0,0,1,.61.36.5.5,0,0,1-.35.61c-.65.17-1.31.31-2,.44Zm4.77-1.35a.51.51,0,0,1-.47-.32.51.51,0,0,1,.28-.65c.6-.23,1.2-.5,1.78-.78a.5.5,0,0,1,.44.9c-.6.29-1.22.57-1.85.81A.39.39,0,0,1,622.59,211.18ZM627,208.9a.5.5,0,0,1-.28-.92c.54-.36,1.07-.74,1.58-1.14a.5.5,0,0,1,.7.09.5.5,0,0,1-.08.7c-.53.41-1.08.81-1.65,1.19A.53.53,0,0,1,627,208.9Zm3.83-3.14a.54.54,0,0,1-.35-.14.5.5,0,0,1,0-.71c.46-.46.9-.94,1.32-1.43a.5.5,0,0,1,.76.65c-.44.51-.9,1-1.37,1.49A.54.54,0,0,1,630.81,205.76Zm3.16-3.82a.54.54,0,0,1-.28-.08.51.51,0,0,1-.14-.7c.37-.53.72-1.09,1.05-1.65a.51.51,0,0,1,.69-.17.5.5,0,0,1,.17.68q-.51.87-1.08,1.71A.49.49,0,0,1,634,201.94Zm2.45-4.3a.54.54,0,0,1-.21,0,.5.5,0,0,1-.24-.67c.27-.58.53-1.18.78-1.79a.5.5,0,0,1,.65-.28.51.51,0,0,1,.28.66c-.26.63-.52,1.24-.81,1.84A.49.49,0,0,1,636.42,197.64Zm1.8-4.62a.4.4,0,0,1-.15,0,.49.49,0,0,1-.33-.62c.2-.62.38-1.25.55-1.89a.5.5,0,0,1,1,.26c-.17.65-.36,1.3-.55,1.93A.51.51,0,0,1,638.22,193Zm1.21-4.81h-.09a.5.5,0,0,1-.4-.59c.12-.63.24-1.28.34-1.93a.49.49,0,0,1,.57-.42.5.5,0,0,1,.42.57c-.11.67-.22,1.33-.35,2A.49.49,0,0,1,639.43,188.21Zm.71-4.91h0a.51.51,0,0,1-.45-.55c.06-.65.11-1.3.16-2a.47.47,0,0,1,.53-.47.49.49,0,0,1,.46.53c0,.67-.09,1.34-.15,2A.52.52,0,0,1,640.14,183.3Z"/><path class="cls-2" d="M605,212.11h-.11l-1-.23a.51.51,0,0,1-.36-.61.49.49,0,0,1,.6-.36l1,.22a.5.5,0,0,1-.11,1Z"/><path class="cls-2" d="M540.92,133a.51.51,0,0,1-.49-.41c-.06-.33-.12-.66-.17-1a.51.51,0,0,1,.41-.58.51.51,0,0,1,.58.42c0,.32.11.65.17,1a.49.49,0,0,1-.41.58Z"/><path class="cls-2" d="M633.11,143.12a.51.51,0,0,1-.46-.31q-.37-.93-.78-1.86a.51.51,0,0,1,.27-.66.49.49,0,0,1,.65.26c.27.63.53,1.26.79,1.88a.5.5,0,0,1-.28.65A.43.43,0,0,1,633.11,143.12Zm-2-4.65a.51.51,0,0,1-.46-.3c-.28-.61-.56-1.22-.85-1.83a.49.49,0,0,1,.23-.66.5.5,0,0,1,.67.23c.29.62.58,1.23.86,1.85a.49.49,0,0,1-.25.66A.46.46,0,0,1,631.11,138.47Zm-2.21-4.57a.5.5,0,0,1-.44-.27l-.93-1.79a.5.5,0,0,1,.21-.68.49.49,0,0,1,.67.21c.32.6.63,1.2.94,1.81a.5.5,0,0,1-.22.67A.46.46,0,0,1,628.9,133.9Zm-2.38-4.47a.5.5,0,0,1-.44-.25c-.33-.59-.66-1.17-1-1.75a.5.5,0,1,1,.86-.51c.34.59.68,1.18,1,1.77a.5.5,0,0,1-.19.68A.53.53,0,0,1,626.52,129.43ZM540.3,129a.51.51,0,0,1-.5-.43c-.08-.68-.17-1.35-.24-2a.5.5,0,0,1,1-.11c.07.66.15,1.33.24,2a.51.51,0,0,1-.43.56Zm83.65-3.9a.5.5,0,0,1-.43-.24c-.35-.57-.71-1.14-1.07-1.71a.5.5,0,1,1,.84-.53c.37.57.73,1.14,1.08,1.72a.49.49,0,0,1-.16.69A.48.48,0,0,1,624,125.07Zm-84.16-1.13a.5.5,0,0,1-.49-.47c0-.68-.09-1.36-.11-2a.51.51,0,0,1,.48-.52h0a.5.5,0,0,1,.5.48c0,.67.06,1.34.1,2a.5.5,0,0,1-.46.54Zm81.41-3.12a.5.5,0,0,1-.41-.22l-1.14-1.67a.5.5,0,0,1,.12-.69.51.51,0,0,1,.7.12c.39.56.77,1.11,1.15,1.68a.5.5,0,0,1-.14.69A.47.47,0,0,1,621.2,120.82Zm-81.57-1.94h0a.51.51,0,0,1-.5-.5c0-.69,0-1.37,0-2a.51.51,0,0,1,.5-.48h0a.5.5,0,0,1,.48.52c0,.66,0,1.33,0,2A.5.5,0,0,1,539.63,118.88Zm78.66-2.2a.51.51,0,0,1-.4-.2l-1.21-1.61a.5.5,0,1,1,.79-.61c.41.54.82,1.08,1.22,1.63a.5.5,0,0,1-.1.7A.55.55,0,0,1,618.29,116.68Zm-78.43-2.86h-.05a.49.49,0,0,1-.45-.54c.06-.69.13-1.37.21-2a.5.5,0,0,1,.55-.44.51.51,0,0,1,.44.56c-.08.65-.15,1.32-.21,2A.49.49,0,0,1,539.86,113.82Zm75.34-1.14a.48.48,0,0,1-.39-.19c-.42-.52-.85-1-1.28-1.55a.51.51,0,0,1,.07-.71.5.5,0,0,1,.7.07c.43.51.86,1,1.29,1.57a.5.5,0,0,1-.08.7A.51.51,0,0,1,615.2,112.68Zm-3.26-3.86a.48.48,0,0,1-.37-.17l-1.35-1.5a.51.51,0,0,1,0-.71.5.5,0,0,1,.71,0c.46.49.91,1,1.36,1.5a.51.51,0,0,1-.38.84Zm-71.42,0h-.09a.5.5,0,0,1-.4-.58c.12-.68.26-1.35.41-2a.5.5,0,0,1,1,.23c-.14.64-.28,1.29-.4,2A.49.49,0,0,1,540.52,108.81Zm68-3.71a.51.51,0,0,1-.36-.15c-.47-.48-.94-1-1.42-1.43a.5.5,0,0,1,0-.71.51.51,0,0,1,.71,0c.48.48,1,1,1.43,1.45a.48.48,0,0,1,0,.7A.45.45,0,0,1,608.51,105.1Zm-66.81-1.21-.14,0a.5.5,0,0,1-.34-.63c.21-.66.42-1.31.65-1.94a.5.5,0,1,1,.94.34c-.22.62-.43,1.25-.63,1.9A.5.5,0,0,1,541.7,103.89Zm63.19-2.33a.5.5,0,0,1-.34-.13c-.49-.46-1-.92-1.49-1.36a.5.5,0,0,1,0-.71.51.51,0,0,1,.71,0l1.5,1.37a.51.51,0,0,1,0,.71A.5.5,0,0,1,604.89,101.56Zm-61.4-2.4a.54.54,0,0,1-.21,0,.5.5,0,0,1-.25-.66c.29-.63.6-1.24.92-1.84a.49.49,0,0,1,.67-.2.49.49,0,0,1,.21.67c-.31.58-.61,1.18-.89,1.79A.49.49,0,0,1,543.49,99.16Zm57.6-1a.56.56,0,0,1-.32-.11c-.51-.44-1-.86-1.56-1.28a.5.5,0,0,1-.08-.7.5.5,0,0,1,.7-.08c.53.42,1.06.85,1.58,1.29a.5.5,0,0,1,.07.7A.5.5,0,0,1,601.09,98.21Zm-4-3.13a.46.46,0,0,1-.29-.1c-.55-.4-1.09-.79-1.64-1.17a.51.51,0,0,1-.12-.7.5.5,0,0,1,.7-.12c.55.39,1.1.78,1.65,1.19a.5.5,0,0,1-.3.9ZM546,94.75a.5.5,0,0,1-.41-.78c.38-.58.79-1.14,1.21-1.67a.49.49,0,0,1,.7-.08.49.49,0,0,1,.08.7c-.4.51-.79,1-1.16,1.61A.52.52,0,0,1,546,94.75Zm47-2.55a.52.52,0,0,1-.27-.07c-.57-.37-1.14-.72-1.71-1.07a.51.51,0,0,1-.17-.69.5.5,0,0,1,.69-.16l1.73,1.07a.5.5,0,0,1,.15.69A.51.51,0,0,1,593,92.2Zm-43.81-1.37a.52.52,0,0,1-.35-.14.5.5,0,0,1,0-.71c.48-.49,1-1,1.5-1.41a.5.5,0,1,1,.65.76c-.49.43-1,.88-1.44,1.35A.51.51,0,0,1,549.14,90.83Zm39.46-1.21a.5.5,0,0,1-.24-.06c-.6-.33-1.19-.64-1.78-.94a.49.49,0,0,1-.22-.67.5.5,0,0,1,.67-.22l1.81,1a.51.51,0,0,1,.2.68A.5.5,0,0,1,588.6,89.62Zm-35.56-2a.51.51,0,0,1-.42-.23.5.5,0,0,1,.14-.69c.57-.38,1.17-.74,1.77-1.06a.49.49,0,0,1,.68.19.5.5,0,0,1-.2.68c-.58.32-1.15.66-1.7,1A.53.53,0,0,1,553,87.62Zm31-.24a.45.45,0,0,1-.2,0c-.62-.28-1.24-.54-1.85-.78a.5.5,0,0,1,.37-.93c.62.25,1.25.51,1.88.79a.5.5,0,0,1-.2,1Zm-4.72-1.82a.45.45,0,0,1-.16,0c-.64-.21-1.28-.41-1.91-.59a.5.5,0,0,1-.35-.61.51.51,0,0,1,.62-.35c.65.18,1.3.38,2,.6a.5.5,0,0,1,.31.63A.5.5,0,0,1,579.34,85.56Zm-21.82-.27a.51.51,0,0,1-.47-.32.5.5,0,0,1,.29-.64c.63-.25,1.28-.48,1.95-.68a.51.51,0,0,1,.62.34.5.5,0,0,1-.34.62c-.63.19-1.26.41-1.87.65A.57.57,0,0,1,557.52,85.29Zm16.94-1.05h-.11c-.66-.13-1.31-.25-2-.35a.48.48,0,0,1-.42-.56.49.49,0,0,1,.56-.42c.67.1,1.35.22,2,.35a.49.49,0,0,1,.39.59A.48.48,0,0,1,574.46,84.24Zm-12.08-.31a.5.5,0,0,1-.09-1c.67-.12,1.36-.21,2-.28a.5.5,0,0,1,.11,1c-.66.07-1.33.16-2,.27Zm7.06-.36h0c-.67,0-1.34-.06-2-.06a.5.5,0,0,1,0-1c.67,0,1.36,0,2.05.07a.49.49,0,0,1,.47.53A.51.51,0,0,1,569.44,83.57Z"/><path class="cls-2" d="M634.59,147a.48.48,0,0,1-.47-.33l-.35-.93a.52.52,0,0,1,.3-.65.51.51,0,0,1,.64.3l.35.94a.5.5,0,0,1-.3.64Z"/><path class="cls-10" d="M616.45,221.55a.5.5,0,0,1-.46-.31c-.13-.31-.25-.62-.38-.92a.5.5,0,0,1,.27-.66.51.51,0,0,1,.65.27l.39.93a.51.51,0,0,1-.28.65A.43.43,0,0,1,616.45,221.55Z"/><path class="cls-10" d="M602.65,268.1h0c-.67,0-1.35,0-2-.1a.5.5,0,0,1-.45-.55.52.52,0,0,1,.54-.45,18.09,18.09,0,0,0,1.93.1.5.5,0,0,1,.5.5A.5.5,0,0,1,602.65,268.1Zm3-.21a.5.5,0,0,1-.07-1,19,19,0,0,0,1.88-.39.5.5,0,0,1,.61.35.49.49,0,0,1-.35.61,16.75,16.75,0,0,1-2,.42Zm-7.87-.35h-.1c-.64-.14-1.3-.3-2-.49a.51.51,0,0,1-.34-.62.5.5,0,0,1,.62-.34c.64.18,1.27.34,1.89.47a.5.5,0,0,1-.11,1Zm12.6-1.07a.5.5,0,0,1-.22-1,15.19,15.19,0,0,0,1.68-.92.5.5,0,0,1,.54.84,16.52,16.52,0,0,1-1.79,1A.52.52,0,0,1,610.34,266.47ZM593,266.09l-.18,0c-.61-.24-1.23-.5-1.85-.78a.52.52,0,0,1-.25-.67.5.5,0,0,1,.67-.24c.6.27,1.2.53,1.79.76a.5.5,0,0,1,.29.65A.51.51,0,0,1,593,266.09Zm21.41-2.38a.49.49,0,0,1-.37-.16.5.5,0,0,1,0-.71,15.68,15.68,0,0,0,1.32-1.38.5.5,0,1,1,.76.64,16.44,16.44,0,0,1-1.41,1.48A.51.51,0,0,1,614.42,263.71Zm3.1-3.83a.52.52,0,0,1-.26-.08.49.49,0,0,1-.16-.68c.33-.54.64-1.11.93-1.7a.49.49,0,0,1,.66-.23.5.5,0,0,1,.23.67c-.3.61-.62,1.21-1,1.78A.51.51,0,0,1,617.52,259.88Zm2.09-4.48a.51.51,0,0,1-.48-.67q.32-.9.57-1.86a.49.49,0,0,1,.61-.35.5.5,0,0,1,.35.61c-.17.66-.37,1.31-.58,1.93A.5.5,0,0,1,619.61,255.4Zm1.19-4.8h-.09a.5.5,0,0,1-.41-.57c.11-.63.19-1.28.26-1.94a.5.5,0,0,1,1,.11c-.07.68-.16,1.34-.27,2A.5.5,0,0,1,620.8,250.6Zm.46-4.93h0a.5.5,0,0,1-.49-.51c0-.45,0-.91,0-1.37v-.59a.5.5,0,0,1,.49-.51.53.53,0,0,1,.51.49v.61c0,.47,0,.94,0,1.4A.5.5,0,0,1,621.26,245.67Zm-.11-4.95a.5.5,0,0,1-.5-.46c0-.65-.11-1.3-.18-2a.5.5,0,0,1,.44-.55.5.5,0,0,1,.55.44c.07.67.14,1.33.19,2a.5.5,0,0,1-.46.54Zm-.6-4.92a.49.49,0,0,1-.49-.41c-.11-.65-.23-1.29-.36-1.94a.5.5,0,0,1,1-.19c.13.65.25,1.31.36,2a.51.51,0,0,1-.41.58Zm-1-4.84a.5.5,0,0,1-.48-.38c-.16-.63-.33-1.27-.51-1.9a.51.51,0,0,1,.35-.62.5.5,0,0,1,.61.35c.19.64.36,1.28.52,1.93a.5.5,0,0,1-.36.6Zm-1.38-4.76a.49.49,0,0,1-.47-.34c-.21-.62-.42-1.24-.64-1.87a.5.5,0,0,1,.94-.33c.23.63.44,1.25.65,1.88a.49.49,0,0,1-.32.63A.41.41,0,0,1,618.15,226.2Z"/><path class="cls-10" d="M588.5,264a.53.53,0,0,1-.24-.06l-.88-.5a.49.49,0,0,1-.18-.68.5.5,0,0,1,.68-.19l.86.49a.51.51,0,0,1,.2.68A.49.49,0,0,1,588.5,264Z"/><path class="cls-10" d="M615.27,222h0a.5.5,0,0,1-.47-.53l.16-2.67a.54.54,0,0,1,.29-.42.49.49,0,0,1,.51.05l2.25,1.67a.5.5,0,0,1,.1.7.48.48,0,0,1-.69.1l-1.51-1.12-.11,1.75A.5.5,0,0,1,615.27,222Z"/><path class="cls-6" d="M433.8,133.42c0-3.28-4.65-5.95-10.33-6s-10.28,2.64-10.27,5.93c0,3,3.9,5.49,8.91,5.89V141c-.95.14-1.65.64-1.65,1.23l0,5.68c0,.72,1,1.29,2.24,1.3h1.69c1.23,0,2.23-.57,2.22-1.28l0-5.68c0-.6-.71-1.1-1.66-1.25v-1.66C430,138.9,433.81,136.43,433.8,133.42Z"/><path class="cls-3" d="M558.43,365.83,379.66,262.56c-6.92-4-12.53-14.72-12.53-23.95V76c0-9.23,5.61-13.47,12.53-9.47L558.43,169.79c6.92,4,12.53,14.71,12.53,23.94V356.35C571,365.58,565.35,369.82,558.43,365.83Z"/><path class="cls-11" d="M563.38,167.23,384.62,64c-2.74-1.58-5.27-1.88-7.34-1.08-.26.1-5.16,2.63-5.4,2.77h0c2.13-1,4.84-.85,7.79.86L558.43,169.79c6.92,4,12.53,14.71,12.53,23.94V356.35c0,5.76-2.19,9.58-5.51,10.66a2.06,2.06,0,0,0,1.1-.37c.16-.09,5.35-2.9,5.5-3,2.38-1.67,3.87-5.09,3.87-9.84V191.17C575.92,181.94,570.3,171.22,563.38,167.23Z"/><path class="cls-12" d="M562,167.9,383.21,64.63c-2.73-1.58-5.27-1.87-7.33-1.08-.26.1-3.76,2-4,2.1h0c2.13-1,4.84-.85,7.79.86L558.43,169.79Z"/><path class="cls-13" d="M559,169.49,380.26,66.22c-2.83-1.64-5.44-1.88-7.54-1a9.25,9.25,0,0,1,6,1.42L557.53,169.94c6.92,4,12.53,14.71,12.53,23.94V356.5c0,5.45-2,9.14-5,10.44,3.87-.61,6.49-4.58,6.49-10.89V193.43C571.56,184.2,566,173.48,559,169.49Z"/><path class="cls-14" d="M374.17,90.45V238.61c0,7.24,3.44,14.31,9,17.85L560,358.62l.3.17a2.39,2.39,0,0,0,3.58-2.08V200.07Z"/><path class="cls-15" d="M563.67,357.45l-.29-.16L386.52,255.13c-5.57-3.54-9-10.61-9-17.85V92.37l-3.33-1.92V238.61c0,7.24,3.44,14.31,9,17.85L560,358.62l.3.17a2.39,2.39,0,0,0,3.43-1.29Z"/><path class="cls-16" d="M554,182.28a7.56,7.56,0,0,0,3.45,5.94c1.9,1.1,3.44.22,3.44-2a7.6,7.6,0,0,0-3.44-5.95C555.51,179.21,554,180.09,554,182.28Z"/><path class="cls-10" d="M545.07,177.11a7.62,7.62,0,0,0,3.45,5.95c1.9,1.1,3.45.22,3.45-2a7.62,7.62,0,0,0-3.45-6C546.62,174,545.07,174.92,545.07,177.11Z"/><path class="cls-14" d="M536.18,171.94a7.6,7.6,0,0,0,3.44,5.95c1.91,1.1,3.45.22,3.45-2a7.56,7.56,0,0,0-3.45-5.94C537.72,168.88,536.18,169.76,536.18,171.94Z"/><path class="cls-7" d="M490.81,167l-13-7.49c-1.31-.75-2.37-.15-2.37,1.36a5.23,5.23,0,0,0,2.37,4.09l13,7.49c1.31.75,2.38.15,2.38-1.35A5.25,5.25,0,0,0,490.81,167Zm21.36,12.33-13-7.49c-1.31-.75-2.38-.15-2.38,1.36a5.24,5.24,0,0,0,2.38,4.09l13,7.49c1.31.75,2.37.15,2.37-1.36A5.23,5.23,0,0,0,512.17,179.33Zm21.35,12.33-13-7.49c-1.31-.75-2.37-.15-2.37,1.36a5.23,5.23,0,0,0,2.37,4.09l13,7.49c1.31.75,2.38.15,2.38-1.36A5.24,5.24,0,0,0,533.52,191.66ZM554.88,204l-13-7.49c-1.31-.75-2.37-.15-2.37,1.35a5.24,5.24,0,0,0,2.37,4.1l13,7.49c1.31.75,2.37.15,2.37-1.36A5.23,5.23,0,0,0,554.88,204Z"/><polygon class="cls-17" points="439.34 177.71 439.34 233.53 445.45 229.96 445.45 173.97 439.34 177.71"/><polygon class="cls-11" points="439.37 177.71 439.37 233.53 317.57 163.69 317.57 107.7 439.37 177.71"/><polygon class="cls-7" points="317.57 107.7 439.37 177.71 445.45 173.97 323.62 104.03 317.57 107.7"/><polygon class="cls-18" points="317.57 107.7 439.37 177.71 445.45 173.97 439.35 176.86 317.57 107.7"/><polygon class="cls-6" points="421.53 213.28 421.53 210.91 383.09 189.06 383.09 191.43 421.53 213.28"/><polygon class="cls-6" points="366.44 144.97 366.44 147.34 431.06 184.31 431.06 181.94 366.44 144.97"/><polygon class="cls-6" points="389.19 177.81 366.44 164.67 366.44 167.04 389.19 180.18 389.19 177.81"/><polygon class="cls-6" points="404.59 196.55 404.59 198.92 413.99 204 413.99 201.63 404.59 196.55"/><polygon class="cls-6" points="403.13 176.01 366.44 154.82 366.44 157.19 403.13 178.38 403.13 176.01"/><polygon class="cls-6" points="379.88 167.51 366.44 159.75 366.44 162.12 379.88 169.88 379.88 167.51"/><polygon class="cls-6" points="376.46 182.68 402.26 197.57 402.26 195.2 376.46 180.31 376.46 182.68"/><polygon class="cls-6" points="382.21 168.85 382.21 171.22 418.43 191.79 418.43 189.42 382.21 168.85"/><polygon class="cls-6" points="391.53 179.16 391.53 181.53 409.63 191.98 409.63 189.61 391.53 179.16"/><polygon class="cls-6" points="374.13 178.96 366.44 174.53 366.44 176.9 374.13 181.33 374.13 178.96"/><polygon class="cls-6" points="405.46 179.72 431.06 194.16 431.06 191.79 405.46 177.35 405.46 179.72"/><polygon class="cls-6" points="420.76 193.14 431.06 199.08 431.06 196.71 420.76 190.77 420.76 193.14"/><polygon class="cls-6" points="366.44 152.27 431.06 189.23 431.06 186.86 366.44 149.9 366.44 152.27"/><polygon class="cls-6" points="411.96 193.33 431.06 204.01 431.06 201.64 411.96 190.96 411.96 193.33"/><polygon class="cls-6" points="380.76 187.71 366.44 179.45 366.44 181.82 380.76 190.08 380.76 187.71"/><polygon class="cls-6" points="423.86 214.63 431.06 218.78 431.06 216.41 423.86 212.26 423.86 214.63"/><polygon class="cls-6" points="416.32 205.35 431.06 213.86 431.06 211.49 416.32 202.98 416.32 205.35"/><polygon class="cls-6" points="366.44 171.97 431.06 208.93 431.06 206.56 366.44 169.6 366.44 171.97"/><path class="cls-17" d="M352.94,135.6,331.7,123.31c-3.71-2.14-6.72.13-6.72,5.09V153c0,5,3,10.71,6.72,12.85l21.24,12.29c3.72,2.14,6.73-.13,6.73-5.08V148.45C359.67,143.5,356.66,137.74,352.94,135.6Z"/><path class="cls-19" d="M355.57,176.12l-21.24-12.29c-3.72-2.14-6.73-7.9-6.73-12.85V126.4a8,8,0,0,1,.83-3.84c-2.06.34-3.45,2.47-3.45,5.84V153c0,5,3,10.71,6.72,12.85l21.24,12.29c2.54,1.47,4.75.86,5.9-1.25A5,5,0,0,1,355.57,176.12Z"/><path class="cls-20" d="M336.44,142.47,315.2,130.19c-3.71-2.15-6.72.13-6.72,5.08v24.59c0,4.95,3,10.7,6.72,12.85L336.44,185c3.72,2.15,6.73-.13,6.73-5.08V155.32C343.17,150.37,340.16,144.62,336.44,142.47Z"/><path class="cls-21" d="M339.91,140.44l-21.24-12.28a4.38,4.38,0,0,0-4.2-.46l0,0-3.68,2.16,0,0a4.26,4.26,0,0,1,4.43.33l21.24,12.28c3.72,2.15,6.73,7.9,6.73,12.85v24.59c0,2.41-.72,4.17-1.88,5.12l2-1.35a6.05,6.05,0,0,0,3.29-5.8V153.29C346.63,148.34,343.62,142.59,339.91,140.44Z"/><path class="cls-18" d="M336.82,142.16l-21.24-12.29c-1.85-1.06-3.52-1-4.73-.13a4.54,4.54,0,0,1,3.91.57L336,142.6c3.72,2.14,6.73,7.9,6.73,12.85V180c0,2.49-.77,4.3-2,5.22,1.7-.65,2.81-2.66,2.81-5.66V155C343.54,150.06,340.53,144.3,336.82,142.16Z"/><path class="cls-6" d="M314.11,137v28.15l23,13.3V150.28Zm21.56,38.9-20.08-11.6V139.53l20.08,11.6Z"/><path class="cls-6" d="M332.09,155.28c0,1.85-1.31,2.59-2.91,1.66a6.4,6.4,0,0,1-2.91-5c0-1.84,1.3-2.59,2.91-1.66A6.44,6.44,0,0,1,332.09,155.28Z"/><polygon class="cls-6" points="314.88 157.64 320.88 149.89 326.97 165.3 331.4 161.7 336.29 174.99 336.2 176.33 314.98 164.98 314.88 157.64"/><polygon class="cls-17" points="589.86 281.5 589.86 349.68 595.97 346.1 595.97 277.77 589.86 281.5"/><polygon class="cls-11" points="589.89 281.5 589.89 349.68 456.59 273.24 456.59 204.91 589.89 281.5"/><polygon class="cls-7" points="456.59 204.91 589.89 281.5 595.97 277.77 462.63 201.23 456.59 204.91"/><polygon class="cls-18" points="456.59 204.91 589.89 281.5 595.97 277.77 589.87 280.65 456.59 204.91"/><ellipse class="cls-17" cx="560.88" cy="299.28" rx="17.03" ry="29.49" transform="translate(-74.37 323.98) rotate(-30.31)"/><path class="cls-19" d="M562.88,321.53C551.32,314.86,542,298.71,542,285.45c0-4.94,1.3-8.79,3.54-11.32-3.44,2.3-5.54,6.79-5.54,13.07,0,13.26,9.36,29.41,20.92,36.08,7.24,4.18,13.62,3.64,17.37-.61C574.43,325.22,569,325,562.88,321.53Z"/><path class="cls-17" d="M502.17,242.34l-4.5-2.59v50.68l4.5,2.6Zm6.48-2.54-4.5-2.59v56.9l4.5,2.6Zm6.66,11.45-4.49-2.6v49.27l4.49,2.6Zm-31,3.57v27.77l4.5,2.59V257.42Zm11.17-7.72-4.5-2.59V286.4l4.5,2.59Zm26.35,18.22-4.49-2.59v39l4.49,2.6Zm6.42,16.09-4.5-2.6v26.67l4.5,2.6ZM482.16,250l-4.49-2.6v31.16l4.49,2.59Zm-17.83,1.84v18.87l4.5,2.6V254.44Zm11.17-7.41-4.5-2.59v32.68l4.5,2.6Z"/><path class="cls-2" d="M502.17,262.24l-4.5-2.6v30.79l4.5,2.6Zm6.48-14-4.5-2.6v48.47l4.5,2.6Zm6.66,12-4.49-2.6v40.27l4.49,2.6Zm-31,1.32v21l4.5,2.59v-21Zm11.17-.83-4.5-2.59V286.4l4.5,2.59Zm-13.34-8.18-4.49-2.6v28.61l4.49,2.59Zm-17.83,12.7v5.46l4.5,2.6v-5.47Zm11.17,0-4.5-2.6v11.86l4.5,2.6Zm46.35,7.31L517.36,270v31.74l4.49,2.6Zm6.42,12.78-4.5-2.59v22.71l4.5,2.6Z"/><polygon class="cls-6" points="515.31 260.81 510.81 258.21 510.81 257.65 515.31 260.25 515.31 260.81"/><polygon class="cls-6" points="508.64 248.8 504.15 246.21 504.15 245.64 508.64 248.24 508.64 248.8"/><polygon class="cls-6" points="528.27 285.93 523.77 283.33 523.77 282.77 528.27 285.36 528.27 285.93"/><polygon class="cls-6" points="502.17 262.8 497.67 260.2 497.67 259.64 502.17 262.24 502.17 262.8"/><polygon class="cls-6" points="521.85 273.14 517.36 270.55 517.36 269.99 521.85 272.58 521.85 273.14"/><polygon class="cls-6" points="475.5 265.83 471 263.23 471 262.67 475.5 265.27 475.5 265.83"/><polygon class="cls-6" points="482.16 253.12 477.67 250.52 477.67 249.96 482.16 252.56 482.16 253.12"/><polygon class="cls-6" points="468.83 267.85 468.83 268.42 464.33 265.82 464.33 265.26 468.83 267.85"/><polygon class="cls-6" points="495.5 261.31 491 258.71 491 258.15 495.5 260.74 495.5 261.31"/><polygon class="cls-6" points="488.83 264.73 484.33 262.13 484.33 261.57 488.83 264.16 488.83 264.73"/><path class="cls-22" d="M540.3,290.42c.27-10,7.56-14,16.49-8.85,4.6,2.66,8.76,7.23,11.76,12.46l3.3-.83c-3.76-6.81-9.12-12.82-15.06-16.25-11.24-6.49-20.4-1.36-20.54,11.42l2.64,2.4Z"/><path class="cls-22" d="M565.07,321.68a14.23,14.23,0,0,1-8.28-2.2c-8.46-4.89-15.45-16.27-16.4-26.24l-4-2c0,.07-1.35.35-1.34.42C536.18,304,546.25,318,556.79,324.1c3.83,2.21,6.42,3.37,9.49,3,.13,0,1.25-.34,1.38-.35Z"/><path class="cls-22" d="M570.11,297.06a31.55,31.55,0,0,1,3.2,13c0,6-2.44,9.92-6.23,11.21l2.55,5.06c4.7-1.62,7.71-6.51,7.71-13.94a39.23,39.23,0,0,0-4-16.16Z"/><path class="cls-22" d="M562.46,305.36a13.81,13.81,0,0,1-2.89-3.47c-.48-.8-.47-1.67,0-1.94a3.75,3.75,0,0,0,1.48-1.65c.51.14,1.14-.05,1.14-.74a2.77,2.77,0,0,0-.74-1.88,9.2,9.2,0,0,0-4.66-8.18,4.3,4.3,0,0,0-2.83-.79c-.16,0-1.54.39-1.68.46-.95.47-.07,1.49-.14,3.14-.42-.1-.74.31-.74,1a3.36,3.36,0,0,0,1.14,2.06,17,17,0,0,0,1.48,3.36c.46.81.48,1.69,0,1.94a3.83,3.83,0,0,1-2.89.13,2.11,2.11,0,0,0-1.21-.05c-.11,0-1.35.35-1.44.4-.65.32.09.79.09,1.9v3.13a2.09,2.09,0,0,0,1,1.65L563,314.74c.23.14,1.55-.33,1.71-.4s.35-.3.35-.64v-3.14A7.46,7.46,0,0,0,562.46,305.36Z"/><path class="cls-6" d="M539.4,290.67c.27-10,7.55-14,16.49-8.84,4.6,2.65,8.76,7.23,11.76,12.45l3.29-.82c-3.75-6.82-9.11-12.82-15.05-16.25-11.25-6.5-20.41-1.36-20.54,11.42Z"/><path class="cls-6" d="M564.17,321.94a14.23,14.23,0,0,1-8.28-2.2c-8.47-4.89-15.45-16.27-16.4-26.24l-4-2c1.08,12.46,9.83,26.77,20.43,32.89,4,2.3,7.71,3.14,10.86,2.69Z"/><path class="cls-6" d="M569.21,297.31a31.59,31.59,0,0,1,3.2,13c0,6-2.44,9.92-6.24,11.21l2.56,5.05c4.69-1.61,7.7-6.51,7.7-13.93a39.08,39.08,0,0,0-3.95-16.16Z"/><path class="cls-6" d="M561.56,305.62a13.84,13.84,0,0,1-2.9-3.47c-.48-.8-.46-1.67,0-1.94a3.67,3.67,0,0,0,1.47-1.65c.51.14,1.14-.05,1.14-.74a2.76,2.76,0,0,0-.73-1.88,9.22,9.22,0,0,0-4.66-8.18c-3.49-2-4.53-.09-4.66,2.8-.42-.09-.73.32-.73,1a3.36,3.36,0,0,0,1.14,2.06,15.61,15.61,0,0,0,1.48,3.35c.46.81.48,1.7,0,1.95a3.81,3.81,0,0,1-2.9.12c-1.46-.44-2.56.45-2.56,2.25v3.14a2.12,2.12,0,0,0,1,1.65l14.54,8.39c.53.31,1,.06,1-.54v-3.14A7.46,7.46,0,0,0,561.56,305.62Z"/><path class="cls-23" d="M538.88,290.8c.27-10,7.56-14,16.49-8.84,4.6,2.65,8.76,7.23,11.76,12.45l3.3-.83c-3.76-6.81-9.12-12.81-15.06-16.25-11.24-6.49-20.4-1.36-20.54,11.43Z"/><path class="cls-23" d="M563.65,322.07a14.25,14.25,0,0,1-8.28-2.2c-8.46-4.89-15.45-16.27-16.4-26.24l-4-2c1.08,12.46,9.83,26.77,20.43,32.89,4,2.3,7.71,3.14,10.87,2.69Z"/><path class="cls-23" d="M568.69,297.44a31.56,31.56,0,0,1,3.2,13c0,6-2.44,9.92-6.23,11.21l2.55,5c4.7-1.61,7.71-6.51,7.71-13.93A39.23,39.23,0,0,0,572,296.62Z"/><path class="cls-23" d="M561,305.75a14.4,14.4,0,0,1-2.89-3.47c-.48-.8-.47-1.67,0-1.94a3.75,3.75,0,0,0,1.48-1.65c.51.14,1.14-.05,1.14-.74a2.77,2.77,0,0,0-.74-1.88,9.2,9.2,0,0,0-4.66-8.18c-3.49-2-4.53-.09-4.65,2.8-.42-.09-.74.32-.74,1a3.36,3.36,0,0,0,1.14,2.06,16.67,16.67,0,0,0,1.48,3.35c.47.81.48,1.7,0,1.95a3.78,3.78,0,0,1-2.89.12c-1.47-.44-2.56.45-2.56,2.25v3.14a2.12,2.12,0,0,0,1,1.65l14.53,8.39c.53.31,1,.06,1-.54V311A7.44,7.44,0,0,0,561,305.75Z"/><polygon class="cls-21" points="457.33 264.37 457.33 292.92 462.12 290.29 462.12 261.58 457.33 264.37"/><polygon class="cls-20" points="457.35 264.37 457.35 292.92 351.71 231.93 351.71 203.22 457.35 264.37"/><polygon class="cls-24" points="351.71 203.22 457.35 264.37 462.12 261.58 356.44 200.49 351.71 203.22"/><polygon class="cls-18" points="351.71 203.22 457.35 264.37 462.12 261.58 457.45 263.62 351.71 203.22"/><polygon class="cls-6" points="451.98 284.28 356.92 228.8 356.92 211.98 451.98 267.45 451.98 284.28"/><path class="cls-19" d="M360.91,216.73l1.92,1.11.89,9.18,0,0,.95-8.12,2.17,1.25.95,9.22,0,0,.89-8.16,1.72,1-1.28,11.3-2.49-1.44-.91-7.82,0,0-.91,6.77-2.65-1.53Z"/><path class="cls-19" d="M372.29,223.35l1.92,1.11.89,9.18,0,0,.95-8.13,2.17,1.26.95,9.21,0,0,.89-8.15,1.72,1-1.28,11.3-2.49-1.43-.91-7.82,0,0-.91,6.77-2.65-1.53Z"/><path class="cls-19" d="M383.76,229.87l1.92,1.11.89,9.18,0,0,.95-8.12,2.17,1.25.95,9.22,0,0,.89-8.16,1.72,1L392,246.68l-2.49-1.43-.9-7.82,0,0-.91,6.77L385,242.65Z"/><polygon class="cls-22" points="399.67 117.45 399.67 137.36 402.68 135.71 402.68 115.64 399.67 117.45"/><polygon class="cls-25" points="399.69 117.45 399.69 137.36 381.97 127.12 381.97 107.06 399.69 117.45"/><polygon class="cls-23" points="381.97 107.06 399.69 117.45 402.68 115.64 384.91 105.31 381.97 107.06"/><polygon class="cls-6" points="381.97 107.06 399.69 117.45 402.68 115.64 399.54 116.49 381.97 107.06"/><polygon class="cls-16" points="415.25 110.81 415.25 143.05 420.12 140.37 420.12 107.88 415.25 110.81"/><polygon class="cls-26" points="386.59 93.98 415.29 110.81 420.12 107.88 391.36 91.14 386.59 93.98"/><polygon class="cls-27" points="386.59 93.98 415.29 110.81 420.12 107.88 415.42 110.12 386.59 93.98"/><polygon class="cls-10" points="386.59 93.98 386.59 107.35 401.78 116.26 401.78 135.24 415.29 143.05 415.29 110.81 386.59 93.98"/><polygon class="cls-21" points="476.59 188.65 476.59 210.91 479.95 209.06 479.95 186.63 476.59 188.65"/><polygon class="cls-20" points="476.62 188.65 476.62 210.91 456.81 199.46 456.81 177.03 476.62 188.65"/><polygon class="cls-24" points="456.81 177.03 476.62 188.65 479.95 186.63 460.1 175.07 456.81 177.03"/><polygon class="cls-18" points="456.81 177.03 476.62 188.65 479.95 186.63 476.45 187.58 456.81 177.03"/><polygon class="cls-21" points="502.59 203.65 502.59 225.91 505.95 224.06 505.95 201.63 502.59 203.65"/><polygon class="cls-20" points="502.62 203.65 502.62 225.91 482.81 214.46 482.81 192.03 502.62 203.65"/><polygon class="cls-24" points="482.81 192.03 502.62 203.65 505.95 201.63 486.1 190.07 482.81 192.03"/><polygon class="cls-18" points="482.81 192.03 502.62 203.65 505.95 201.63 502.45 202.58 482.81 192.03"/><polygon class="cls-21" points="528.43 218.49 528.43 240.74 531.78 238.89 531.78 216.47 528.43 218.49"/><polygon class="cls-20" points="528.45 218.49 528.45 240.74 508.64 229.3 508.64 206.87 528.45 218.49"/><polygon class="cls-24" points="508.64 206.87 528.45 218.49 531.78 216.47 511.93 204.91 508.64 206.87"/><polygon class="cls-18" points="508.64 206.87 528.45 218.49 531.78 216.47 528.28 217.41 508.64 206.87"/><polygon class="cls-21" points="553.93 232.99 553.93 255.24 557.28 253.39 557.28 230.97 553.93 232.99"/><polygon class="cls-20" points="553.95 232.99 553.95 255.24 534.14 243.8 534.14 221.37 553.95 232.99"/><polygon class="cls-24" points="534.14 221.37 553.95 232.99 557.28 230.97 537.43 219.41 534.14 221.37"/><polygon class="cls-18" points="534.14 221.37 553.95 232.99 557.28 230.97 553.78 231.91 534.14 221.37"/><path class="cls-6" d="M522.5,227.91a8.54,8.54,0,0,1-1.84-2.19c-.3-.51-.29-1.06,0-1.23a2.37,2.37,0,0,0,.93-1c.32.08.72,0,.72-.47a1.78,1.78,0,0,0-.46-1.19,5.85,5.85,0,0,0-3-5.18c-2.21-1.27-2.87-.06-2.95,1.78-.26-.06-.46.2-.46.65a2.15,2.15,0,0,0,.72,1.3,10.5,10.5,0,0,0,.93,2.12c.3.51.31,1.08,0,1.23a2.42,2.42,0,0,1-1.83.08c-.93-.28-1.62.28-1.62,1.42v2a1.32,1.32,0,0,0,.61,1l9.2,5.31c.33.2.6,0,.6-.34v-2A4.75,4.75,0,0,0,522.5,227.91Z"/><path class="cls-6" d="M537.72,242.23l3.21,1.85v-5.75l-3.21-1.86Zm5.08,2.94L546,247V236.46l-3.21-1.85Zm5.09-12.42V248.1L551.1,250V234.6Z"/><path class="cls-6" d="M497.88,212.22c0-.3,0-.6-.06-.91l1.51-.19a14.31,14.31,0,0,0-.68-2.3l-1.73-.52a12.33,12.33,0,0,0-1.08-1.86l.42-1.74A13.76,13.76,0,0,0,494.6,203l-.93,1.2a7.21,7.21,0,0,0-.76-.51,5.87,5.87,0,0,0-.76-.37l-.93-2.28a4.63,4.63,0,0,0-1.66-.16l.42,2.22a2.33,2.33,0,0,0-1.08.61l-1.73-1.47a4.61,4.61,0,0,0-.69,1.5l1.52,2a5.4,5.4,0,0,0-.06.83,7.07,7.07,0,0,0,.06.91l-1.52.19a14.06,14.06,0,0,0,.69,2.3l1.73.52a11.54,11.54,0,0,0,1.08,1.86l-.42,1.74a13.82,13.82,0,0,0,1.66,1.75l.93-1.21a7.32,7.32,0,0,0,.76.52,5.77,5.77,0,0,0,.76.36l.93,2.28a4.87,4.87,0,0,0,1.66.17l-.42-2.23a2.38,2.38,0,0,0,1.08-.61l1.73,1.47a4.51,4.51,0,0,0,.68-1.5l-1.51-1.94A7.37,7.37,0,0,0,497.88,212.22Zm-5-.58a4.4,4.4,0,0,1-2-3.44c0-1.27.9-1.78,2-1.14a4.42,4.42,0,0,1,2,3.44C494.91,211.77,494,212.28,492.91,211.64Z"/><path class="cls-6" d="M460.48,185.89l6.38,10,6.37-2.6h0a2.43,2.43,0,0,0-.76-.74L461.23,186a.93.93,0,0,0-.76-.14Z"/><path class="cls-6" d="M473.25,193.28l-6.39,3.65L465,193.8l-4.56,1.87,0,0,4.24-2.42-4.24-7.33a.81.81,0,0,0-.48.85v7.62a2.77,2.77,0,0,0,1.25,2.16L472.48,203c.69.4,1.25.08,1.25-.71v-7.62A2.62,2.62,0,0,0,473.25,193.28Zm0,9.75-4.56-7.14.34-.19,4.24,7.32Z"/><polygon class="cls-17" points="376.82 253.73 376.82 282.27 381.32 279.71 381.32 251 376.82 253.73"/><polygon class="cls-11" points="376.84 253.73 376.84 282.27 300.17 238.03 300.17 209.32 376.84 253.73"/><polygon class="cls-7" points="300.17 209.32 376.84 253.73 381.32 251 304.62 206.65 300.17 209.32"/><polygon class="cls-18" points="300.17 209.32 376.84 253.73 381.32 251 376.66 252.88 300.17 209.32"/><path class="cls-6" d="M329.8,231.14l-14-8.09c-.86-.5-1.55-.1-1.55.89v9.49a3.43,3.43,0,0,0,1.55,2.69l8.76,5,4.38,7.56v-5l.88.51c.86.49,1.56.1,1.56-.89v-9.49A3.44,3.44,0,0,0,329.8,231.14Zm-9.88,1.78c-.46.26-1.2-.17-1.65-1s-.46-1.63,0-1.89,1.19.17,1.65,1S320.37,232.66,319.92,232.92Zm3.79,2.19c-.45.26-1.19-.17-1.65-1s-.45-1.64,0-1.9,1.2.17,1.65,1S324.17,234.85,323.71,235.11Zm3.8,2.19c-.46.26-1.2-.17-1.65-1s-.46-1.64,0-1.9,1.19.17,1.65,1S328,237,327.51,237.3Zm-14.45-4.54v-7.71L307.71,222c-.86-.5-1.56-.1-1.56.89v9.49a3.44,3.44,0,0,0,1.56,2.69l.87.5v5l4.38-2.5,8.76,5.06c.86.49,1.56.1,1.56-.89v-.45l-7.5-4.32A6,6,0,0,1,313.06,232.76Z"/><polygon class="cls-6" points="334.55 235.92 334.55 238.29 371.17 259.43 371.17 257.06 334.55 235.92"/><polygon class="cls-6" points="359.59 260.24 334.55 245.77 334.55 248.14 359.59 262.61 359.59 260.24"/><polygon class="cls-6" points="334.55 243.21 371.17 264.36 371.17 261.99 334.55 240.84 334.55 243.21"/><path class="cls-28" d="M427.91,313.41,404.1,300c2-1.51,3.26-3.3,3.26-5.23,0-5.33-9.09-9.65-20.3-9.65s-20.3,4.32-20.3,9.65,9.09,9.64,20.3,9.64a41.49,41.49,0,0,0,6.66-.54l25.64,14.4a7.21,7.21,0,0,0,6.46-.27C427.93,317,430.45,314.9,427.91,313.41Z"/><path class="cls-15" d="M427.83,310.78a5.45,5.45,0,1,1-7.39-2.22A5.46,5.46,0,0,1,427.83,310.78Z"/><path class="cls-19" d="M410.58,276.51l-11.8,6.36,17.6,32.46h0l0,.05c1,1.9,4.49,2,7.75.26s5.07-4.72,4-6.62l0,0h0Z"/><path class="cls-17" d="M410.59,276.53c1,1.9-.79,4.86-4,6.62s-6.73,1.64-7.75-.26.79-4.86,4.05-6.61S409.57,274.64,410.59,276.53Z"/><path class="cls-15" d="M402.86,267.9l-7,3.78,5,9.26h0v0c.61,1.13,2.68,1.19,4.61.15s3-2.81,2.41-3.93v0h0Z"/><path class="cls-7" d="M383.05,193.46c-8.74-5-16.66-5.62-22.46-2.48-.16.09-8.48,4.73-8.74,5.13,5.89-4.45,14.63-4.38,24.37,1.25,17.77,10.26,32.17,35.1,32.17,55.49,0,10.4-3.75,17.63-9.78,20.86a7.45,7.45,0,0,0,1.57-.69l6-3.64c5.59-3.42,9-10.47,9-20.43C415.22,228.56,400.81,203.72,383.05,193.46Z"/><path class="cls-3" d="M376.22,197.36c-17.76-10.26-32.16-2.05-32.16,18.34s14.4,45.23,32.16,55.49,32.17,2,32.17-18.34S394,207.62,376.22,197.36Zm-.48,69c-15.07-8.71-27.3-29.79-27.3-47.09s12.23-24.27,27.3-15.56S403,233.45,403,250.75,390.82,275,375.74,266.32Z"/><path class="cls-7" d="M381.39,263.16c-15.07-8.7-27.3-29.78-27.3-47.08,0-7.06,2-12.4,5.47-15.65-6.74,1.81-11.12,8.45-11.12,18.8,0,17.3,12.23,38.38,27.3,47.09,8.93,5.15,16.85,4.81,21.83.08C393.05,267.62,387.45,266.66,381.39,263.16Z"/><path class="cls-13" d="M377.77,196.59c-8.52-4.92-16.26-5.58-22-2.71,5.36-1.5,13.25-.68,20.46,3.48,17.77,10.26,32.17,35.1,32.17,55.49,0,10.61-5.14,18.22-11.39,21.35,7.85-2.2,12.94-10,12.94-22.13C409.94,231.69,395.54,206.84,377.77,196.59Z"/></g></g></g></svg>