<svg xmlns="http://www.w3.org/2000/svg" viewBox="0 0 689.99 71.61"><defs><style>.cls-1{fill:#004693;}.cls-2,.cls-3{fill:#d78d00;}.cls-3{stroke:#d78d00;stroke-width:0.75px;}.cls-4{font-size:15px;fill:#fff;font-family:Raleway-Bold, Raleway;font-weight:700;letter-spacing:0.53em;}.cls-5{letter-spacing:0.52em;}.cls-6{fill:none;stroke:#fff;stroke-miterlimit:10;}</style></defs><g id="Capa_2" data-name="Capa 2"><g id="Capa_1-2" data-name="Capa 1"><path class="cls-1" d="M18.57,9.89,21.22,0H33.35L69.67.06q5.22-.06,8,2.41t1.48,7.42L78,14.13A10.49,10.49,0,0,1,73.15,21c-2.39,1.32-5.62,2-9.68,2H24.69l-1.14,4.23L20.83,37.37H11.2l2.5-9.31,3.73-13.93H68l1.13-4.24Z"/><path class="cls-1" d="M88.31,37.37H78.68L86.05,9.89,88.7,0h9.63L95.68,9.89,94.58,14l-2.17,8.09Z"/><path class="cls-2" d="M102.68,9.89l.15-.58a11.41,11.41,0,0,1,5.3-6.58A17,17,0,0,1,117.46,0l36.32.06L165.93,0l-2.64,9.89H102.68Zm47.49,17.33h8.47l-2.72,10.15H107.45c-3.39,0-6-.91-7.88-2.73a6.32,6.32,0,0,1-1.76-6.58l3.73-13.93h60.61L159.78,23h-51l-1.14,4.23h42.51Z"/><path class="cls-2" d="M216.49,27.22l3.44-12.84L223.78,0h9.64L225.9,28.06l-2.5,9.31h-9.63L179.92,9.89h-9.76L172.8,0h9.89ZM169,14.38l-6.16,23h9.63l3.68-13.74,2.48-9.25Z"/><path class="cls-1" d="M285.12,27.22h8.48l-2.72,10.15H242.41c-3.39,0-6-.91-7.88-2.73a6.32,6.32,0,0,1-1.76-6.58l5-18.75a11.43,11.43,0,0,1,5.29-6.58A17,17,0,0,1,252.42,0l36.32.06L300.89,0l-2.64,9.89H255.42a12.58,12.58,0,0,0-6.11,1.47,6.6,6.6,0,0,0-3.39,3.54L244,22.09a3.27,3.27,0,0,0,1.34,3.59,8.32,8.32,0,0,0,5.37,1.54h34.41Z"/><path class="cls-1" d="M305.12,9.89l.15-.58a11.41,11.41,0,0,1,5.3-6.58A17,17,0,0,1,319.9,0l36.32.06L368.37,0l-2.64,9.89H305.12Zm47.49,17.33h8.47l-2.72,10.15H309.89c-3.39,0-6-.91-7.88-2.73a6.32,6.32,0,0,1-1.76-6.58L304,14.13h60.61L362.22,23h-51l-1.14,4.23h42.51Z"/><path class="cls-2" d="M411.12,9.89,413.77,0H425.9l36.33.06q5.22-.06,8,2.41t1.48,7.42l-1.14,4.24A10.49,10.49,0,0,1,465.7,21c-2.39,1.32-5.61,2-9.68,2H417.24l-1.14,4.23-2.71,10.15h-9.64l2.5-9.31L410,14.13h50.6l1.13-4.24Z"/><path class="cls-2" d="M526.09,27.22h8.47l-2.72,10.15H483.37c-3.38,0-6-.91-7.87-2.73a6.3,6.3,0,0,1-1.77-6.58l5-18.75a11.41,11.41,0,0,1,5.3-6.58A17,17,0,0,1,493.38,0l36.33.06L541.86,0l-2.65,9.89H496.38a12.61,12.61,0,0,0-6.11,1.47,6.62,6.62,0,0,0-3.38,3.54L485,22.09a3.26,3.26,0,0,0,1.35,3.59,8.27,8.27,0,0,0,5.36,1.54h34.42Z"/><path class="cls-2" d="M546.23,9.31a11.45,11.45,0,0,1,5.3-6.58A17,17,0,0,1,560.86,0l36.33.06L609.34,0l-2.65,9.89h-51l-1.21,4.49h38.79c4.06,0,6.93.67,8.61,2S604,20,603.11,23.24L602,27.48a11.89,11.89,0,0,1-5.46,7.42,18,18,0,0,1-9.39,2.47H538.71l2.66-9.89H592l1.13-4.24H554.57q-5.49-.12-8.11-2.31c-1.75-1.45-2.28-3.64-1.59-6.55l.69-2.57Z"/><polygon class="cls-1" points="386.69 17.66 379.96 17.66 381.76 10.94 388.49 10.94 386.69 17.66"/><polygon class="cls-1" points="395.48 17.66 388.75 17.66 390.56 10.94 397.28 10.94 395.48 17.66"/><polygon class="cls-1" points="384.34 26.43 377.61 26.43 379.41 19.71 386.14 19.71 384.34 26.43"/><polygon class="cls-1" points="393.13 26.43 386.4 26.43 388.21 19.71 394.93 19.71 393.13 26.43"/><polygon class="cls-3" points="634.33 35.79 632.61 35.79 633.07 34.07 634.79 34.07 634.33 35.79"/><polygon class="cls-3" points="661.43 35.79 659.71 35.79 660.17 34.07 661.89 34.07 661.43 35.79"/><polygon class="cls-1" points="677.82 71.61 0 71.61 7.93 45.93 685.75 45.93 677.82 71.61"/><path class="cls-3" d="M628.69,31.75c.34-.72-.42-1.12-1.48-1.12h-9.58c-2.62,0-4-1.3-3.46-2.94H617c-.16.62.45,1.12,1.45,1.12h9.58c1.14,0,2.79.21,3.44,1.31s-.26,2.88-1,3.65a6.56,6.56,0,0,1-3.34,1.62c-2.4.62-4.85.4-7.3.4h-9.52l.85-1.81h14.41a3.07,3.07,0,0,0,2.59-1.28Z"/><path class="cls-3" d="M635.37,23.49l-.84,1.82H620.11a3.07,3.07,0,0,0-2.59,1.28h-2.84c.88-1.71,3.58-3.1,6.28-3.1Z"/><path class="cls-3" d="M640.43,35.79h-3.08l7.93-7h3.07l-2.06,1.82h6.18l-1.42-7.14h3.08l2.47,12.3h-3.08l-.68-3.35h-8.61Z"/><path class="cls-3" d="M682.71,31.75c.34-.72-.42-1.12-1.47-1.12h-9.58c-2.62,0-4-1.3-3.47-2.94h2.87c-.16.62.44,1.12,1.44,1.12h9.58c2.62,0,4.27,1.21,3.47,2.94a6.51,6.51,0,0,1-1,2.06,5.87,5.87,0,0,1-2.23,1.25,10.92,10.92,0,0,1-3.47.73H664.42l.84-1.81h14.42a3.07,3.07,0,0,0,2.59-1.28Z"/><path class="cls-3" d="M689.4,23.49l-.85,1.82H674.14a3.09,3.09,0,0,0-2.6,1.28h-2.83c.88-1.71,3.57-3.1,6.27-3.1Z"/><text class="cls-4" transform="matrix(1.11, 0, -0.17, 0.98, 84.19, 64.58)">PIENSE EN G<tspan class="cls-5" x="178.29" y="0">R</tspan><tspan x="196.05" y="0">ANDE, PIENCE PCS.</tspan></text><line class="cls-6" x1="612.26" y1="27.09" x2="622.76" y2="27.09"/><line class="cls-6" y1="59.77" x2="63.89" y2="59.77"/><line class="cls-6" x1="610.39" y1="59.77" x2="683.67" y2="59.77"/><line class="cls-6" x1="665.22" y1="27.09" x2="675.72" y2="27.09"/></g></g></svg>